<?xml version="1.0" encoding="iso-8859-1"?>
<!-- Generator: Adobe Illustrator 16.0.0, SVG Export Plug-In . SVG Version: 6.00 Build 0)  -->
<!DOCTYPE svg PUBLIC "-//W3C//DTD SVG 1.1//EN" "http://www.w3.org/Graphics/SVG/1.1/DTD/svg11.dtd">
<svg version="1.1" id="Layer_1" xmlns="http://www.w3.org/2000/svg" xmlns:xlink="http://www.w3.org/1999/xlink" x="0px" y="0px"
	 width="500px" height="500px" viewBox="0 0 500 500" style="enable-background:new 0 0 500 500;" xml:space="preserve">
<path style="fill-rule:evenodd;clip-rule:evenodd;fill:#414042;" d="M472.258,492.547c-0.079,0.163-0.155,0.455-0.244,0.462
	c-0.646,0.043-1.293,0.021-1.945,0.021c-146.71,0.007-293.423,0.007-440.135-0.064c-0.627,0-2.249,1.2-2.188-0.907
	c1.288-3.024,2.642-6.023,3.857-9.082c4.732-11.915,9.442-23.849,14.131-35.786c5.21-13.264,10.383-26.538,15.596-39.807
	c4.684-11.938,9.396-23.859,14.097-35.791c5.166-13.112,10.345-26.219,15.504-39.33c4.406-11.195,8.792-22.402,13.187-33.6
	c5.21-13.266,10.417-26.529,15.636-39.793c4.668-11.859,9.36-23.709,14.029-35.57c5.214-13.262,10.407-26.531,15.625-39.789
	c4.667-11.863,9.373-23.708,14.039-35.571c5.216-13.259,10.385-26.539,15.619-39.792c5.293-13.401,10.676-26.77,15.957-40.175
	c5.252-13.332,10.429-26.69,15.63-40.042c2.756-7.072,5.487-14.155,8.227-21.234c24.803,0.001,49.608,0.001,74.411,0.001
	c3.31,9.063,6.603,18.136,9.936,27.195c6.335,17.235,12.707,34.459,19.048,51.696c5.814,15.82,11.591,31.662,17.408,47.483
	c6.335,17.236,12.7,34.461,19.047,51.691c6.313,17.164,12.622,34.326,18.926,51.489c5.847,15.898,11.69,31.797,17.532,47.694
	c6.309,17.164,12.614,34.332,18.928,51.484c6.342,17.238,12.715,34.456,19.048,51.688c5.822,15.832,11.594,31.671,17.415,47.491
	c5.678,15.454,11.376,30.899,17.111,46.335C469.132,484.84,470.73,488.679,472.258,492.547z M108.379,443.839
	c0.814,0.037,1.294,0.075,1.777,0.075c37.528,0.006,75.059-0.006,112.586,0.044c1.675,0.006,2.406-0.636,3-2.075
	c1.512-3.66,3.175-7.267,4.771-10.889c5.466-12.416,10.915-24.839,16.393-37.243c6.185-14.007,12.413-27.999,18.6-42.001
	c5.48-12.405,10.912-24.833,16.393-37.242c6.184-14.002,12.392-27.993,18.599-41.99c5.407-12.184,10.852-24.349,16.188-36.563
	c0.445-1.019,0.532-2.467,0.183-3.517c-2.24-6.681-4.69-13.294-6.993-19.952c-5.393-15.568-10.724-31.153-16.121-46.715
	c-5.141-14.812-10.359-29.599-15.515-44.411c-5.283-15.179-10.536-30.372-15.799-45.56c-2.134-6.171-4.256-12.347-6.632-19.252
	C206.526,186.004,157.509,314.779,108.379,443.839z M397.647,443.784c-16.158-42.924-32.227-85.598-48.444-128.679
	c-18.817,43.195-37.383,85.824-56.048,128.679C328.038,443.784,362.648,443.784,397.647,443.784z"/>
</svg>
